<?xml version="1.0" standalone="no"?>
<!DOCTYPE svg PUBLIC "-//W3C//DTD SVG 20010904//EN"
 "http://www.w3.org/TR/2001/REC-SVG-20010904/DTD/svg10.dtd">
<svg version="1.0" xmlns="http://www.w3.org/2000/svg"
 width="2286.000000pt" height="2288.000000pt" viewBox="0 0 2286.000000 2288.000000"
 preserveAspectRatio="xMidYMid meet">

<g transform="translate(0.000000,2288.000000) scale(0.100000,-0.100000)"
fill="#000000" stroke="none">
<path d="M15825 22860 c-549 -61 -1066 -263 -1620 -633 -261 -174 -676 -505
-975 -777 -74 -68 -268 -250 -430 -405 -698 -667 -975 -892 -1430 -1165 -871
-521 -2134 -938 -3990 -1316 l-185 -38 -170 110 c-1094 710 -2290 1227 -3565
1544 -518 128 -772 169 -1096 177 -305 7 -466 -11 -674 -78 -192 -62 -341
-151 -481 -286 -111 -107 -196 -226 -269 -378 -224 -464 -271 -1056 -165
-2110 165 -1642 529 -3142 1137 -4694 207 -527 260 -723 259 -957 0 -189 -42
-323 -154 -492 -87 -131 -186 -246 -435 -507 -253 -265 -382 -414 -519 -599
-510 -687 -838 -1527 -977 -2506 -59 -412 -81 -797 -73 -1285 9 -544 50 -1018
138 -1595 79 -513 132 -779 373 -1845 42 -190 83 -401 95 -495 27 -204 42
-266 86 -357 63 -129 153 -203 331 -272 l51 -20 -39 112 c-383 1081 -637 2397
-719 3727 -16 256 -16 975 0 1215 50 770 174 1401 376 1915 55 141 185 405
262 533 367 609 917 987 1561 1072 147 19 433 19 591 0 655 -81 1403 -416
2107 -944 392 -293 758 -658 1000 -997 528 -741 710 -1549 518 -2302 -216
-845 -890 -1458 -1728 -1568 -149 -20 -493 -14 -631 10 -616 108 -1130 404
-1556 896 -186 215 -371 514 -479 775 -97 235 -164 342 -258 409 -69 51 -121
62 -178 37 -62 -28 -83 -77 -84 -189 -1 -308 234 -822 567 -1237 110 -138 326
-355 463 -465 291 -233 626 -409 970 -508 307 -90 621 -121 1195 -122 693 -1
1039 -50 1380 -195 357 -152 640 -364 1194 -896 309 -295 409 -388 546 -504
333 -281 626 -456 940 -558 216 -70 327 -95 805 -183 441 -80 623 -122 815
-185 303 -100 507 -220 696 -408 130 -130 255 -304 246 -344 -2 -12 -27 -110
-56 -217 -28 -107 -66 -258 -86 -335 -19 -77 -42 -168 -52 -202 -16 -58 -16
-64 0 -97 34 -72 258 -143 330 -105 57 31 80 89 147 372 94 394 217 812 272
920 42 84 252 394 354 522 199 251 477 538 705 727 548 456 1192 784 1814 923
260 58 367 69 665 69 233 0 295 -3 405 -22 442 -72 810 -227 1165 -491 141
-104 396 -357 503 -498 259 -341 434 -727 512 -1127 38 -194 48 -329 43 -557
l-6 -206 32 -19 c24 -15 50 -19 121 -19 81 0 97 3 156 32 78 38 151 108 185
176 107 211 51 686 -139 1173 -212 542 -544 1033 -970 1431 -83 79 -241 212
-306 259 -6 5 1358 2408 1534 2704 242 406 388 599 514 679 60 39 180 78 262
87 339 34 688 -304 764 -742 19 -108 19 -208 0 -346 -27 -206 -49 -279 -260
-883 -89 -256 -137 -434 -167 -630 -18 -115 -22 -185 -22 -390 0 -260 6 -340
49 -570 98 -521 331 -1028 675 -1465 102 -129 371 -399 502 -503 296 -235 642
-416 1003 -523 123 -37 276 -40 348 -7 94 43 157 114 187 212 42 133 19 768
-46 1291 -180 1448 -763 2892 -1636 4050 -166 221 -253 327 -528 640 -450 514
-614 757 -712 1055 -65 196 -73 252 -73 515 0 307 12 376 170 1005 128 512
178 752 219 1057 158 1164 27 2214 -436 3493 -50 138 -178 468 -285 735 -353
878 -468 1189 -567 1537 -165 577 -221 997 -276 2063 -40 777 -65 1068 -121
1430 -101 653 -313 1233 -606 1660 -388 564 -910 908 -1529 1006 -117 18 -464
27 -579 14z m396 -650 c270 -55 518 -195 762 -430 888 -855 1354 -2705 1057
-4195 -38 -188 -85 -357 -152 -550 -46 -134 -52 -159 -52 -235 -1 -105 9 -127
140 -305 822 -1116 1161 -1757 1378 -2610 144 -568 260 -1416 288 -2098 44
-1106 -167 -2648 -460 -3362 -24 -60 -91 -247 -147 -415 -56 -168 -133 -381
-169 -475 -424 -1074 -1175 -1897 -2372 -2601 -433 -254 -1900 -947 -2614
-1234 -778 -313 -1333 -459 -1962 -516 -209 -19 -690 -21 -898 -5 -920 75
-2055 417 -3355 1011 -230 105 -681 335 -814 414 -141 85 -188 126 -197 174
-10 53 18 95 121 178 94 76 135 123 253 289 39 55 102 143 141 195 168 226
238 451 248 792 11 365 -39 670 -213 1295 -232 830 -390 1180 -701 1541 -41
48 -123 150 -181 227 -59 77 -151 187 -204 245 -143 154 -155 203 -80 314 20
30 114 142 207 248 489 553 747 930 1230 1798 326 586 433 815 555 1180 174
521 269 1041 349 1925 47 511 54 645 48 940 -8 449 -49 629 -249 1100 -92 216
-162 341 -286 510 -60 83 -82 138 -82 209 1 171 196 321 597 455 177 60 745
210 1078 286 759 172 1537 292 2029 314 165 7 186 10 236 34 159 75 316 257
606 698 180 274 252 372 391 531 616 706 1136 1161 1773 1555 567 350 936 517
1275 577 122 22 308 20 426 -4z m-13529 -3745 c326 -43 571 -134 973 -362 703
-400 1039 -855 1071 -1456 17 -323 -130 -677 -429 -1032 -227 -268 -657 -635
-897 -763 -106 -57 -175 -75 -273 -70 -218 10 -386 174 -652 638 -277 482
-467 934 -579 1376 -40 157 -163 721 -177 809 -20 126 -16 315 10 408 96 359
436 520 953 452z"/>
<path d="M15935 21149 c-679 -54 -1433 -630 -2069 -1579 -339 -506 -359 -806
-70 -1020 64 -48 166 -99 369 -185 88 -38 354 -167 590 -288 907 -465 1080
-530 1390 -529 320 2 550 154 708 468 191 379 247 1051 142 1679 -38 227 -164
791 -202 905 -59 180 -148 324 -248 403 -95 76 -250 133 -390 143 -38 3 -83 6
-100 7 -16 2 -70 0 -120 -4z m-72 -563 c42 -17 105 -89 146 -165 18 -34 52
-120 76 -193 44 -136 165 -647 209 -888 57 -311 91 -701 85 -973 -4 -139 -6
-159 -25 -184 -55 -73 -156 -64 -427 42 -311 121 -648 293 -895 457 -151 99
-426 312 -503 388 -88 87 -103 117 -104 206 0 62 4 80 38 145 36 72 310 438
481 644 237 286 479 472 673 519 76 19 205 20 246 2z"/>
<path d="M15950 12667 c-98 -29 -180 -75 -359 -201 -80 -56 -194 -131 -253
-166 -269 -159 -437 -326 -514 -515 -25 -61 -28 -83 -29 -175 0 -98 2 -110 32
-172 79 -168 259 -260 387 -199 73 36 108 93 201 332 79 202 114 260 209 354
136 134 308 218 451 219 72 1 87 -3 145 -31 36 -18 103 -65 150 -104 172 -145
236 -174 365 -167 176 10 279 102 278 248 -1 81 -20 134 -79 217 -106 148
-359 297 -618 363 -111 28 -264 27 -366 -3z"/>
<path d="M17885 10936 c-242 -47 -805 -232 -1011 -333 -111 -54 -160 -125
-147 -211 17 -105 108 -226 189 -250 90 -26 154 -9 361 99 165 87 197 96 416
124 151 19 206 37 334 106 108 58 113 66 133 192 21 132 2 224 -56 262 -36 23
-130 28 -219 11z"/>
<path d="M8840 10479 c-388 -40 -671 -251 -915 -681 -99 -174 -119 -228 -120
-313 0 -59 4 -78 27 -117 27 -45 90 -99 155 -132 61 -31 155 -18 235 33 41 26
53 43 93 125 106 221 320 447 512 541 94 46 178 65 288 65 114 0 210 -23 385
-92 127 -49 140 -52 225 -53 82 0 96 3 158 33 124 61 155 141 99 255 -84 168
-200 235 -510 293 -152 28 -395 54 -487 52 -33 0 -98 -5 -145 -9z"/>
<path d="M18325 9953 c-11 -2 -126 -33 -255 -68 -129 -35 -331 -89 -448 -120
-236 -61 -291 -84 -345 -144 -58 -64 -80 -173 -45 -218 18 -22 141 -57 203
-56 48 0 89 11 200 53 255 95 280 101 465 105 274 6 435 32 477 77 28 31 35
57 34 133 0 96 -45 183 -115 226 -30 18 -117 25 -171 12z"/>
<path d="M13128 9810 c-505 -53 -965 -309 -1233 -685 -98 -137 -139 -254 -133
-378 8 -187 133 -324 368 -405 84 -29 211 -58 465 -106 315 -60 376 -104 388
-276 4 -47 23 -182 42 -300 28 -165 38 -255 42 -390 6 -206 -5 -283 -68 -467
-104 -304 -212 -443 -424 -544 -129 -62 -188 -74 -355 -73 -177 1 -290 27
-448 104 -142 69 -234 135 -374 268 -163 156 -230 185 -324 143 -80 -37 -143
-155 -151 -285 -6 -94 6 -164 44 -244 37 -79 173 -213 277 -272 484 -272 1293
-290 1700 -36 111 69 170 139 255 303 159 306 321 457 491 458 51 0 84 -7 150
-34 80 -31 96 -34 270 -44 195 -11 668 2 860 24 187 21 258 56 431 216 63 58
161 144 219 191 246 200 297 273 320 460 5 42 19 154 31 247 34 266 18 369
-69 447 -61 55 -130 73 -282 73 -117 0 -129 -2 -183 -28 -40 -20 -66 -42 -85
-69 -25 -39 -27 -50 -34 -202 -10 -225 -51 -443 -101 -543 -65 -127 -227 -226
-452 -275 -95 -20 -400 -17 -505 6 -120 26 -260 78 -344 127 -89 53 -192 157
-229 230 -83 165 -104 576 -42 813 36 140 69 213 202 452 209 376 257 497 258
644 0 73 -4 94 -28 145 -65 139 -250 245 -502 289 -113 20 -332 28 -447 16z"/>
<path d="M17580 8477 c-69 -16 -90 -28 -128 -71 -36 -41 -56 -103 -46 -143 10
-40 53 -124 78 -151 11 -13 38 -33 60 -44 43 -22 99 -22 269 2 88 13 107 12
180 -3 78 -16 121 -34 285 -122 99 -53 169 -59 247 -20 58 28 183 135 225 193
104 144 -112 277 -565 348 -136 21 -530 28 -605 11z"/>
<path d="M8730 8257 c-179 -56 -464 -195 -651 -319 -201 -133 -349 -293 -381
-412 -16 -60 -3 -96 42 -118 86 -44 215 -9 615 163 126 55 293 127 370 160
237 102 280 150 280 309 0 68 -5 96 -24 138 -44 98 -116 121 -251 79z"/>
<path d="M8590 7094 c-289 -62 -556 -241 -655 -440 -34 -68 -40 -88 -40 -144
1 -142 110 -280 221 -280 23 0 70 16 123 41 74 36 100 56 186 144 124 127 131
130 330 120 224 -10 356 28 415 122 96 151 -47 393 -262 443 -61 14 -242 11
-318 -6z"/>
<path d="M8898 5976 c-100 -36 -179 -101 -336 -280 -58 -66 -137 -154 -174
-194 -92 -100 -122 -162 -116 -246 7 -112 83 -191 207 -215 78 -15 175 4 271
55 92 48 151 101 211 191 76 112 99 124 352 182 107 24 168 58 205 113 24 37
27 51 27 129 0 104 -9 118 -114 172 -82 43 -144 62 -290 87 -131 23 -191 24
-243 6z"/>
<path d="M5362 8000 c-46 -28 -65 -78 -57 -149 15 -138 81 -289 186 -431 119
-161 319 -336 413 -361 104 -28 224 38 275 151 28 61 26 123 -4 188 -54 117
-196 312 -306 421 -159 157 -403 244 -507 181z"/>
<path d="M4179 7493 c-66 -56 -99 -182 -63 -241 9 -15 50 -54 91 -86 118 -93
180 -189 238 -366 35 -109 59 -157 99 -198 61 -66 115 -78 260 -58 87 11 102
16 123 40 63 74 -8 368 -128 529 -85 113 -317 316 -429 376 -78 42 -144 43
-191 4z"/>
<path d="M3029 6951 c-27 -28 -29 -34 -29 -115 0 -46 5 -97 10 -111 6 -15 39
-71 75 -124 102 -153 155 -281 210 -501 41 -163 66 -190 174 -190 81 0 138 37
177 117 25 49 30 73 32 154 7 198 -83 405 -259 593 -170 182 -317 249 -390
177z"/>
</g>
</svg>
